<svg xmlns="http://www.w3.org/2000/svg" viewBox="0 0 136.52 153.23"><defs><style>.cls-1{fill:#c0a94f;}.cls-2{fill:#00d48c;fill-rule:evenodd;}</style></defs><title>Recurso 11Imagotipo.svg</title><g id="Capa_2" data-name="Capa 2"><g id="Capa_1-2" data-name="Capa 1"><path class="cls-1" d="M68.94,152.6l0-50.18,1.91,2.12c6.79,7.56,15.75,11.75,27.33,12.8a46,46,0,0,0-9.66-13.2l-1.95-1.8,2.65-.1c12.41-.44,23.53-5.47,34-15.36-11.31-3.12-21.44-3.16-30.91-.11L87,88.45l4.2-3.56c10.26-8.69,16.68-20.45,19.59-35.9C96.28,54.28,85.85,62.31,78.92,73.51L75.56,79l1.36-6.25c3.32-15.23.57-30.29-8.39-46-9,15.7-11.71,30.76-8.39,46L61.5,79l-3.36-5.44C51.22,62.31,40.78,54.28,26.27,49c2.92,15.45,9.34,27.21,19.59,35.9l4.2,3.56-5.24-1.69c-9.47-3-19.6-3-30.91.12,10.43,9.89,21.55,14.92,34,15.36l2.65.1-2,1.8a46.15,46.15,0,0,0-9.65,13.2c11.57-1,20.53-5.25,27.32-12.8l1.91-2.13v49.3H66V108c-7.32,7.13-16.77,11-28.79,11.67l-1.83.11.77-1.66a51.39,51.39,0,0,1,9.2-13.83C32.8,103.23,21.56,97.6,11,87.13l-1.3-1.29,1.75-.53C22.22,82.07,32,81.46,41.1,83.49c-9.1-9-14.78-20.85-17.32-36l-.3-1.81,1.74.59c14,4.78,24.48,12,31.9,21.83C55.17,53.52,58.62,39,67.59,24l.94-1.58L69.47,24C78.45,39,81.89,53.52,80,68.12c7.41-9.88,17.89-17,31.9-21.82l1.73-.59-.3,1.81c-2.54,15.12-8.22,26.94-17.33,36,9.1-2,19-1.38,29.63,1.81l1.76.53L126,87.13c-10.54,10.47-21.77,16.1-34.29,17.15a51.07,51.07,0,0,1,9.2,13.83l.78,1.66-1.84-.11c-12-.72-21.47-4.54-28.78-11.67V152.6Z"/><path class="cls-2" d="M63.2,98c-10.73-4.32-24.73-10-38.61-8.45,13.05,9.38,28,9.18,38.61,8.45Zm9.87,3.66c4.12,4.34,9.26,6.84,15,8.84-4.38-5.1-9.77-6.88-15-8.84Zm30.85-44.58c-6.14,19-17.28,24.9-31.7,37.12,9.58-15.63,14.22-28.14,31.7-37.12ZM73.86,98c10.73-4.32,24.73-10,38.62-8.45-13.06,9.38-28,9.18-38.62,8.45ZM64,101.66c-4.12,4.34-9.25,6.84-15,8.84,4.37-5.1,9.76-6.88,15-8.84Zm4.54-64.48c-8.63,20.09-4.28,35.82,0,55.46,4.28-19.64,8.63-35.37,0-55.46ZM33.14,57.08c6.14,19,17.28,24.9,31.7,37.12-9.58-15.63-14.21-28.14-31.7-37.12Z"/><path class="cls-1" d="M68.13,153.23a11,11,0,0,1-5.46-1.45L2.57,117.45A5.12,5.12,0,0,1,0,113V45.56A14.61,14.61,0,0,1,7.29,32.94L61,2A14.58,14.58,0,0,1,75.55,2l53.69,31a14.62,14.62,0,0,1,7.28,12.62V113a5.13,5.13,0,0,1-2.56,4.44L73.57,151.79A11,11,0,0,1,68.13,153.23Zm.13-150.1a11.5,11.5,0,0,0-5.72,1.52l-53.69,31a11.48,11.48,0,0,0-5.72,9.91V113a2,2,0,0,0,1,1.73l60.09,34.32a8,8,0,0,0,7.81,0l60.37-34.33a2,2,0,0,0,1-1.73V45.56a11.48,11.48,0,0,0-5.72-9.91L74,4.65A11.5,11.5,0,0,0,68.26,3.13Z"/></g></g></svg>