<svg xmlns="http://www.w3.org/2000/svg" viewBox="0 0 175.07 175.07"><defs><style>.cls-1{fill:#fef8f1;}.cls-2{fill:none;stroke:#c0a94f;stroke-miterlimit:10;}.cls-3{fill:#00cca5;fill-rule:evenodd;}</style></defs><title>Recurso 7logo1</title><g id="Capa_2" data-name="Capa 2"><g id="Capa_1-2" data-name="Capa 1"><circle class="cls-1" cx="87.54" cy="87.54" r="87.54"/><path class="cls-2" d="M89.24,126.46c8.47,9.41,19.9,14.46,34.57,15.34a55.32,55.32,0,0,0-12.38-17.58c15.22-.54,29-7,41.59-19.6-14-4.23-26.79-4.49-38.5-.73C127,93.3,134.75,78.62,137.94,59.58c-18,6.13-31,15.89-39.49,29.55,4-18.45.38-36.92-10.91-55.86C76.24,52.21,72.6,70.68,76.62,89.13,68.18,75.47,55.08,65.71,37.13,59.58c3.2,19,10.93,33.72,23.42,44.31-11.71-3.76-24.48-3.5-38.5.73,12.62,12.55,26.37,19.06,41.59,19.6a55.26,55.26,0,0,0-12.38,17.59c14.67-.89,26.1-5.94,34.57-15.36v.29l0,.58v.58h0v.86h0v.57l0,.27V131l0,.55v.09l0,.4v.4l0,.4v.4l0,.39v.08l0,.26v.8l0,.37v.36h0v.72h0V137l0,.45,0,.21v.68l0,.59v.65l0,.51v.27l0,.5v.5h0v.23l0,.22H90v-.3l0-.63v-.55l0-.37v-.44l0-.55v-.66l0-.63v-.45l0-.23v-.36l0-.35h0V136l0-.49h0l0-.5v-.25l0-.51v-.79l0-.21v-.05l0-.54v-.82l0-.55v-1.71l0-.42v-.41h0v-.57l0-.58V127l0-.58ZM90,141.8Z"/><path class="cls-3" d="M81.38,118.06c-12.38-5-28.55-11.57-44.57-9.75,15.07,10.83,32.34,10.6,44.57,9.75Zm11.4,4.22c4.75,5,10.68,7.9,17.35,10.21-5-5.89-11.27-7.94-17.35-10.21Zm35.61-51.45c-7.09,22-19.95,28.74-36.59,42.84,11.06-18,16.4-32.48,36.59-42.84Zm-34.7,47.23c12.38-5,28.55-11.57,44.57-9.75-15.06,10.83-32.34,10.6-44.57,9.75Zm-11.4,4.22c-4.75,5-10.68,7.9-17.35,10.21,5-5.89,11.28-7.94,17.35-10.21Zm5.25-74.43c-10,23.19-4.94,41.35,0,64,4.93-22.67,10-40.83,0-64Zm-40.86,23c7.09,22,19.95,28.74,36.59,42.84-11-18-16.4-32.48-36.59-42.84Z"/></g></g></svg>